<?xml version="1.0" standalone="no"?><!DOCTYPE svg PUBLIC "-//W3C//DTD SVG 1.1//EN" "http://www.w3.org/Graphics/SVG/1.1/DTD/svg11.dtd"><svg t="1595088977896" class="icon" viewBox="0 0 1027 1024" version="1.1" xmlns="http://www.w3.org/2000/svg" p-id="1777" width="128.375" height="128" xmlns:xlink="http://www.w3.org/1999/xlink"><defs><style type="text/css"></style></defs><path d="M291.84025 334.507c37.547-40.96 75.093-92.16 81.92-129.707H209.92025c6.827 40.96 44.373 88.747 81.92 129.707z" p-id="1778" fill="#5a5a5a"></path><path d="M530.77325 443.733c10.24 0 17.067-6.826 17.067-17.066v-409.6C547.84025 6.827 541.01325 0 530.77325 0h-512C8.53325 0 1.70725 6.827 1.70725 17.067v512c0 10.24 6.826 17.066 17.066 17.066h409.6c10.24 0 17.067-6.826 17.067-17.066v-34.134c0-27.306 23.893-51.2 51.2-51.2h34.133zM428.37325 204.8h-17.066c-10.24 51.2-51.2 109.227-95.574 157.013 20.48 23.894 40.96 40.96 54.614 54.614 6.826 6.826 6.826 17.066 3.413 23.893-3.413 3.413-6.827 6.827-13.653 6.827-3.414 0-6.827 0-10.24-3.414-3.414-3.413-27.307-23.893-58.027-54.613-30.72 30.72-54.613 51.2-58.027 54.613h-10.24c-3.413 0-10.24-3.413-13.653-6.826-6.827-6.827-6.827-17.067 3.413-23.894 13.654-10.24 34.134-30.72 54.614-54.613-40.96-44.373-85.334-102.4-95.574-153.6h-17.066c-10.24 0-17.067-6.827-17.067-17.067s6.827-17.066 17.067-17.066h119.466v-51.2c0-10.24 6.827-17.067 17.067-17.067s17.067 6.827 17.067 17.067v51.2h119.466c10.24 0 17.067 6.826 17.067 17.066s-6.827 17.067-17.067 17.067z" p-id="1779" fill="#5a5a5a"></path><path d="M1008.64025 477.867h-512c-10.24 0-17.067 6.826-17.067 17.066v512c0 10.24 6.827 17.067 17.067 17.067h512c10.24 0 17.067-6.827 17.067-17.067v-512c0-10.24-6.827-17.066-17.067-17.066zM913.06725 921.6h-6.827c-6.827 0-13.653-3.413-17.067-10.24L855.04025 819.2H684.37325l-34.133 92.16c-3.413 10.24-13.653 13.653-20.48 10.24-10.24-3.413-13.653-13.653-10.24-23.893l136.533-341.334c6.827-13.653 27.307-13.653 30.72 0l136.534 341.334c3.413 10.24-3.414 20.48-10.24 23.893z" p-id="1780" fill="#5a5a5a"></path><path d="M698.02725 785.067h143.36l-71.68-177.494zM633.17325 102.4c143.36 0 262.827 105.813 286.72 245.76l-34.133-34.133c-6.827-6.827-17.067-6.827-23.893 0-6.827 6.826-6.827 17.066 0 23.893l68.266 64.853c3.414 3.414 6.827 6.827 13.654 6.827h3.413c3.413 0 3.413-3.413 6.827-3.413l68.266-68.267c6.827-6.827 6.827-17.067 0-23.893s-17.066-6.827-23.893 0l-40.96 40.96C936.96025 194.56 800.42725 68.267 633.17325 68.267c-10.24 0-17.066 6.826-17.066 17.066s6.826 17.067 17.066 17.067z m-204.8 819.2c-160.426 0-296.96-105.813-320.853-245.76l34.133 34.133c3.414 6.827 10.24 6.827 13.654 6.827s10.24 0 13.653-3.413c6.827-6.827 6.827-17.067 0-23.894l-68.267-68.266s-3.413-3.414-6.826-3.414c-3.414-3.413-10.24-3.413-13.654-3.413-3.413 0-3.413 3.413-6.826 3.413L5.12025 686.08c-6.827 6.827-6.827 17.067 0 23.893s17.067 6.827 23.893 0l40.96-40.96c23.894 160.427 174.08 286.72 358.4 286.72 10.24 0 17.067-6.826 17.067-17.066s-6.827-17.067-17.067-17.067z" p-id="1781" fill="#5a5a5a"></path></svg>